<mxfile host="app.diagrams.net" modified="2024-04-24T12:19:12.415Z" agent="Mozilla/5.0 (Macintosh; Intel Mac OS X 10_15_7) AppleWebKit/537.36 (KHTML, like Gecko) Chrome/123.0.0.0 Safari/537.36" etag="Cpp9Fsw30kG7WrxJ5Gaf" version="24.2.7" type="github">
  <diagram name="Page-1" id="tiHa4omzH0BSpX4AcXK8">
    <mxGraphModel dx="1060" dy="582" grid="1" gridSize="10" guides="1" tooltips="1" connect="1" arrows="1" fold="1" page="1" pageScale="1" pageWidth="850" pageHeight="1100" math="0" shadow="0">
      <root>
        <mxCell id="0" />
        <mxCell id="1" parent="0" />
        <mxCell id="6VxaLlo_b2UKYAiHiD4Z-170" value="" style="rounded=0;whiteSpace=wrap;html=1;dashed=1;strokeWidth=1;" vertex="1" parent="1">
          <mxGeometry x="1600" y="531" width="190" height="390" as="geometry" />
        </mxCell>
        <mxCell id="6VxaLlo_b2UKYAiHiD4Z-162" value="" style="rounded=1;whiteSpace=wrap;html=1;dashed=1;" vertex="1" parent="1">
          <mxGeometry width="740" height="100" as="geometry" />
        </mxCell>
        <mxCell id="6VxaLlo_b2UKYAiHiD4Z-92" value="" style="rounded=0;whiteSpace=wrap;html=1;dashed=1;strokeWidth=1;" vertex="1" parent="1">
          <mxGeometry x="467" y="530" width="953" height="390" as="geometry" />
        </mxCell>
        <mxCell id="6VxaLlo_b2UKYAiHiD4Z-131" value="&lt;b&gt;&lt;font color=&quot;#ffffff&quot; style=&quot;font-size: 14px;&quot;&gt;XXL-JOB&lt;/font&gt;&lt;/b&gt;" style="whiteSpace=wrap;html=1;strokeColor=#BD7000;shadow=1;strokeWidth=1;rounded=1;arcSize=2;fillColor=#f0a30a;fontColor=#000000;" vertex="1" parent="1">
          <mxGeometry x="1070" y="591" width="140" height="60" as="geometry" />
        </mxCell>
        <mxCell id="6VxaLlo_b2UKYAiHiD4Z-86" value="" style="rounded=0;whiteSpace=wrap;html=1;dashed=1;strokeWidth=1;" vertex="1" parent="1">
          <mxGeometry x="20" y="530" width="440" height="390" as="geometry" />
        </mxCell>
        <mxCell id="6VxaLlo_b2UKYAiHiD4Z-48" style="rounded=0;orthogonalLoop=1;jettySize=auto;html=1;entryX=0.5;entryY=0;entryDx=0;entryDy=0;endArrow=none;endFill=0;strokeColor=#97D077;strokeWidth=2;" edge="1" parent="1" source="6VxaLlo_b2UKYAiHiD4Z-32" target="6VxaLlo_b2UKYAiHiD4Z-6">
          <mxGeometry relative="1" as="geometry" />
        </mxCell>
        <mxCell id="6VxaLlo_b2UKYAiHiD4Z-17" value="" style="rounded=0;orthogonalLoop=1;jettySize=auto;html=1;endArrow=none;endFill=0;entryX=0.5;entryY=0;entryDx=0;entryDy=0;" edge="1" parent="1" source="6VxaLlo_b2UKYAiHiD4Z-6" target="6VxaLlo_b2UKYAiHiD4Z-16">
          <mxGeometry relative="1" as="geometry" />
        </mxCell>
        <mxCell id="6VxaLlo_b2UKYAiHiD4Z-6" value="               Cookie分流" style="shadow=1;strokeWidth=1;rounded=1;absoluteArcSize=1;arcSize=2;fillColor=#1ba1e2;fontColor=#ffffff;strokeColor=#006EAF;fontStyle=1;fontSize=14;" vertex="1" parent="1">
          <mxGeometry x="170" y="150" width="190.9" height="70" as="geometry" />
        </mxCell>
        <mxCell id="6VxaLlo_b2UKYAiHiD4Z-7" value="&lt;font size=&quot;1&quot; color=&quot;#ffffff&quot;&gt;&lt;b style=&quot;font-size: 14px;&quot;&gt;CDN&lt;/b&gt;&lt;/font&gt;" style="sketch=0;dashed=0;connectable=0;html=1;fillColor=#757575;strokeColor=none;shape=mxgraph.gcp2.google_network_edge_cache;part=1;labelPosition=right;verticalLabelPosition=middle;align=left;verticalAlign=middle;spacingLeft=5;fontSize=12;" vertex="1" parent="6VxaLlo_b2UKYAiHiD4Z-6">
          <mxGeometry y="0.5" width="32" height="32" relative="1" as="geometry">
            <mxPoint x="5" y="-16" as="offset" />
          </mxGeometry>
        </mxCell>
        <mxCell id="6VxaLlo_b2UKYAiHiD4Z-22" value="&lt;font color=&quot;#cda2be&quot; style=&quot;font-size: 14px;&quot;&gt;&lt;b&gt;h5&lt;/b&gt;&lt;/font&gt;" style="text;html=1;align=center;verticalAlign=middle;whiteSpace=wrap;rounded=0;" vertex="1" parent="1">
          <mxGeometry x="145.1" y="13.099999999999994" width="60" height="30" as="geometry" />
        </mxCell>
        <mxCell id="6VxaLlo_b2UKYAiHiD4Z-23" value="&lt;b&gt;&lt;font color=&quot;#97d077&quot; style=&quot;font-size: 14px;&quot;&gt;pc web&lt;/font&gt;&lt;/b&gt;" style="text;html=1;align=center;verticalAlign=middle;whiteSpace=wrap;rounded=0;" vertex="1" parent="1">
          <mxGeometry x="267.1" y="17.099999999999994" width="60" height="30" as="geometry" />
        </mxCell>
        <mxCell id="6VxaLlo_b2UKYAiHiD4Z-24" value="&lt;span style=&quot;font-size: 14px;&quot;&gt;&lt;b style=&quot;&quot;&gt;&lt;font color=&quot;#cda2be&quot;&gt;移动端正式版&lt;/font&gt;&lt;/b&gt;&lt;/span&gt;" style="text;html=1;align=center;verticalAlign=middle;whiteSpace=wrap;rounded=0;" vertex="1" parent="1">
          <mxGeometry x="510.75" y="15" width="89.25" height="30" as="geometry" />
        </mxCell>
        <mxCell id="6VxaLlo_b2UKYAiHiD4Z-25" value="&lt;font color=&quot;#97d077&quot;&gt;&lt;span style=&quot;font-family: monospace; font-size: 0px; text-align: start; text-wrap: nowrap;&quot;&gt;%3CmxGraphModel%3E%3Croot%3E%3CmxCell%20id%3D%220%22%2F%3E%3CmxCell%20id%3D%221%22%20parent%3D%220%22%2F%3E%3CmxCell%20id%3D%222%22%20value%3D%22%26lt%3Bfont%20color%3D%26quot%3B%2397d077%26quot%3B%26gt%3B%26lt%3Bspan%20style%3D%26quot%3Bfont-size%3A%2014px%3B%26quot%3B%26gt%3B%26lt%3Bb%26gt%3B%E7%A7%BB%E5%8A%A8%E7%AB%AF%26lt%3B%2Fb%26gt%3B%26lt%3B%2Fspan%26gt%3B%26lt%3B%2Ffont%26gt%3B%22%20style%3D%22text%3Bhtml%3D1%3Balign%3Dcenter%3BverticalAlign%3Dmiddle%3BwhiteSpace%3Dwrap%3Brounded%3D0%3B%22%20vertex%3D%221%22%20parent%3D%221%22%3E%3CmxGeometry%20x%3D%22510.75%22%20y%3D%2215%22%20width%3D%2278.5%22%20height%3D%2230%22%20as%3D%22geometry%22%2F%3E%3C%2FmxCell%3E%3C%2Froot%3E%3C%2FmxGraphModel%3E&lt;/span&gt;&lt;b&gt;&lt;font style=&quot;font-size: 14px;&quot;&gt;&amp;nbsp;&lt;/font&gt;&lt;/b&gt;&lt;b style=&quot;font-size: 14px;&quot;&gt;移动端&lt;/b&gt;&lt;b&gt;&lt;font style=&quot;font-size: 14px;&quot;&gt;体验版&lt;/font&gt;&lt;/b&gt;&lt;/font&gt;" style="text;html=1;align=center;verticalAlign=middle;whiteSpace=wrap;rounded=0;" vertex="1" parent="1">
          <mxGeometry x="599.75" y="15.100000000000001" width="123.5" height="30" as="geometry" />
        </mxCell>
        <mxCell id="6VxaLlo_b2UKYAiHiD4Z-37" style="edgeStyle=orthogonalEdgeStyle;rounded=0;orthogonalLoop=1;jettySize=auto;html=1;" edge="1" parent="1" source="6VxaLlo_b2UKYAiHiD4Z-16" target="6VxaLlo_b2UKYAiHiD4Z-36">
          <mxGeometry relative="1" as="geometry">
            <Array as="points">
              <mxPoint x="400" y="390" />
              <mxPoint x="650" y="390" />
            </Array>
          </mxGeometry>
        </mxCell>
        <mxCell id="6VxaLlo_b2UKYAiHiD4Z-47" style="edgeStyle=orthogonalEdgeStyle;rounded=0;orthogonalLoop=1;jettySize=auto;html=1;" edge="1" parent="1">
          <mxGeometry relative="1" as="geometry">
            <mxPoint x="400.090909090909" y="363.5999999999999" as="sourcePoint" />
            <mxPoint x="224.090909090909" y="437" as="targetPoint" />
            <Array as="points">
              <mxPoint x="400" y="391" />
              <mxPoint x="224" y="391" />
            </Array>
          </mxGeometry>
        </mxCell>
        <mxCell id="6VxaLlo_b2UKYAiHiD4Z-16" value="&lt;b&gt;&lt;font style=&quot;font-size: 14px;&quot;&gt;WAF&lt;/font&gt;&lt;/b&gt;" style="whiteSpace=wrap;html=1;strokeColor=#006EAF;shadow=1;strokeWidth=1;rounded=1;arcSize=2;glass=0;fillColor=#1ba1e2;fontColor=#ffffff;" vertex="1" parent="1">
          <mxGeometry x="330" y="282.6" width="140" height="70" as="geometry" />
        </mxCell>
        <mxCell id="6VxaLlo_b2UKYAiHiD4Z-55" style="rounded=0;orthogonalLoop=1;jettySize=auto;html=1;entryX=0.5;entryY=0;entryDx=0;entryDy=0;endArrow=none;endFill=0;strokeColor=#B9E0A5;strokeWidth=2;" edge="1" parent="1" source="6VxaLlo_b2UKYAiHiD4Z-28" target="6VxaLlo_b2UKYAiHiD4Z-6">
          <mxGeometry relative="1" as="geometry" />
        </mxCell>
        <mxCell id="6VxaLlo_b2UKYAiHiD4Z-28" value="" style="points=[[0.35,0,0],[0.98,0.51,0],[1,0.71,0],[0.67,1,0],[0,0.795,0],[0,0.65,0]];verticalLabelPosition=bottom;sketch=0;html=1;verticalAlign=top;aspect=fixed;align=center;pointerEvents=1;shape=mxgraph.cisco19.user;fillColor=#005073;strokeColor=none;" vertex="1" parent="1">
          <mxGeometry x="280" y="40" width="50" height="50" as="geometry" />
        </mxCell>
        <mxCell id="6VxaLlo_b2UKYAiHiD4Z-49" style="rounded=0;orthogonalLoop=1;jettySize=auto;html=1;entryX=0.5;entryY=0;entryDx=0;entryDy=0;endArrow=none;endFill=0;strokeColor=#CDA2BE;strokeWidth=2;" edge="1" parent="1" target="6VxaLlo_b2UKYAiHiD4Z-6">
          <mxGeometry relative="1" as="geometry">
            <mxPoint x="195" y="82" as="sourcePoint" />
          </mxGeometry>
        </mxCell>
        <mxCell id="6VxaLlo_b2UKYAiHiD4Z-29" value="" style="fillColor=#28A8E0;verticalLabelPosition=bottom;sketch=0;html=1;strokeColor=#ffffff;verticalAlign=top;align=center;points=[[0.145,0.145,0],[0.5,0,0],[0.855,0.145,0],[1,0.5,0],[0.855,0.855,0],[0.5,1,0],[0.145,0.855,0],[0,0.5,0]];pointerEvents=1;shape=mxgraph.cisco_safe.compositeIcon;bgIcon=ellipse;resIcon=mxgraph.cisco_safe.capability.user;" vertex="1" parent="1">
          <mxGeometry x="151.6" y="40" width="43" height="43" as="geometry" />
        </mxCell>
        <mxCell id="6VxaLlo_b2UKYAiHiD4Z-66" style="rounded=0;orthogonalLoop=1;jettySize=auto;html=1;endArrow=none;endFill=0;strokeColor=#B9E0A5;strokeWidth=2;" edge="1" parent="1" source="6VxaLlo_b2UKYAiHiD4Z-30">
          <mxGeometry relative="1" as="geometry">
            <mxPoint x="400" y="280" as="targetPoint" />
          </mxGeometry>
        </mxCell>
        <mxCell id="6VxaLlo_b2UKYAiHiD4Z-30" value="" style="fillColor=#28A8E0;verticalLabelPosition=bottom;sketch=0;html=1;strokeColor=#ffffff;verticalAlign=top;align=center;points=[[0.145,0.145,0],[0.5,0,0],[0.855,0.145,0],[1,0.5,0],[0.855,0.855,0],[0.5,1,0],[0.145,0.855,0],[0,0.5,0]];pointerEvents=1;shape=mxgraph.cisco_safe.compositeIcon;bgIcon=ellipse;resIcon=mxgraph.cisco_safe.capability.user;" vertex="1" parent="1">
          <mxGeometry x="530.5" y="42" width="43" height="43" as="geometry" />
        </mxCell>
        <mxCell id="6VxaLlo_b2UKYAiHiD4Z-67" style="rounded=0;orthogonalLoop=1;jettySize=auto;html=1;entryX=0.5;entryY=0;entryDx=0;entryDy=0;endArrow=none;endFill=0;strokeColor=#CDA2BE;strokeWidth=2;" edge="1" parent="1" source="6VxaLlo_b2UKYAiHiD4Z-31" target="6VxaLlo_b2UKYAiHiD4Z-16">
          <mxGeometry relative="1" as="geometry" />
        </mxCell>
        <mxCell id="6VxaLlo_b2UKYAiHiD4Z-31" value="" style="fillColor=#28A8E0;verticalLabelPosition=bottom;sketch=0;html=1;strokeColor=#ffffff;verticalAlign=top;align=center;points=[[0.145,0.145,0],[0.5,0,0],[0.855,0.145,0],[1,0.5,0],[0.855,0.855,0],[0.5,1,0],[0.145,0.855,0],[0,0.5,0]];pointerEvents=1;shape=mxgraph.cisco_safe.compositeIcon;bgIcon=ellipse;resIcon=mxgraph.cisco_safe.capability.user;" vertex="1" parent="1">
          <mxGeometry x="640" y="45" width="43" height="43" as="geometry" />
        </mxCell>
        <mxCell id="6VxaLlo_b2UKYAiHiD4Z-32" value="" style="fillColor=#28A8E0;verticalLabelPosition=bottom;sketch=0;html=1;strokeColor=#ffffff;verticalAlign=top;align=center;points=[[0.145,0.145,0],[0.5,0,0],[0.855,0.145,0],[1,0.5,0],[0.855,0.855,0],[0.5,1,0],[0.145,0.855,0],[0,0.5,0]];pointerEvents=1;shape=mxgraph.cisco_safe.compositeIcon;bgIcon=ellipse;resIcon=mxgraph.cisco_safe.capability.user;" vertex="1" parent="1">
          <mxGeometry x="41" y="40" width="43" height="43" as="geometry" />
        </mxCell>
        <mxCell id="6VxaLlo_b2UKYAiHiD4Z-56" style="rounded=0;orthogonalLoop=1;jettySize=auto;html=1;entryX=0.5;entryY=0;entryDx=0;entryDy=0;endArrow=none;endFill=0;strokeColor=#CDA2BE;strokeWidth=2;" edge="1" parent="1" source="6VxaLlo_b2UKYAiHiD4Z-33" target="6VxaLlo_b2UKYAiHiD4Z-6">
          <mxGeometry relative="1" as="geometry" />
        </mxCell>
        <mxCell id="6VxaLlo_b2UKYAiHiD4Z-33" value="" style="points=[[0.35,0,0],[0.98,0.51,0],[1,0.71,0],[0.67,1,0],[0,0.795,0],[0,0.65,0]];verticalLabelPosition=bottom;sketch=0;html=1;verticalAlign=top;aspect=fixed;align=center;pointerEvents=1;shape=mxgraph.cisco19.user;fillColor=#005073;strokeColor=none;" vertex="1" parent="1">
          <mxGeometry x="367.9" y="40" width="50" height="50" as="geometry" />
        </mxCell>
        <mxCell id="6VxaLlo_b2UKYAiHiD4Z-34" value="&lt;b&gt;&lt;font color=&quot;#97d077&quot; style=&quot;font-size: 14px;&quot;&gt;h5&lt;/font&gt;&lt;/b&gt;" style="text;html=1;align=center;verticalAlign=middle;whiteSpace=wrap;rounded=0;" vertex="1" parent="1">
          <mxGeometry x="32.5" y="14.099999999999994" width="60" height="30" as="geometry" />
        </mxCell>
        <mxCell id="6VxaLlo_b2UKYAiHiD4Z-35" value="&lt;font color=&quot;#cda2be&quot; style=&quot;font-size: 14px;&quot;&gt;&lt;b&gt;pc web&lt;/b&gt;&lt;/font&gt;" style="text;html=1;align=center;verticalAlign=middle;whiteSpace=wrap;rounded=0;" vertex="1" parent="1">
          <mxGeometry x="353.34999999999997" y="15" width="79.1" height="30" as="geometry" />
        </mxCell>
        <mxCell id="6VxaLlo_b2UKYAiHiD4Z-82" value="" style="edgeStyle=orthogonalEdgeStyle;rounded=0;orthogonalLoop=1;jettySize=auto;html=1;strokeColor=#B9E0A5;strokeWidth=2;" edge="1" parent="1" source="6VxaLlo_b2UKYAiHiD4Z-36" target="6VxaLlo_b2UKYAiHiD4Z-81">
          <mxGeometry relative="1" as="geometry" />
        </mxCell>
        <mxCell id="6VxaLlo_b2UKYAiHiD4Z-100" style="edgeStyle=orthogonalEdgeStyle;rounded=0;orthogonalLoop=1;jettySize=auto;html=1;entryX=0.5;entryY=0;entryDx=0;entryDy=0;strokeColor=#CDA2BE;strokeWidth=2;" edge="1" parent="1" source="6VxaLlo_b2UKYAiHiD4Z-36" target="6VxaLlo_b2UKYAiHiD4Z-84">
          <mxGeometry relative="1" as="geometry" />
        </mxCell>
        <mxCell id="6VxaLlo_b2UKYAiHiD4Z-165" style="edgeStyle=orthogonalEdgeStyle;rounded=0;orthogonalLoop=1;jettySize=auto;html=1;entryX=0;entryY=0.5;entryDx=0;entryDy=0;" edge="1" parent="1" source="6VxaLlo_b2UKYAiHiD4Z-36" target="6VxaLlo_b2UKYAiHiD4Z-156">
          <mxGeometry relative="1" as="geometry" />
        </mxCell>
        <mxCell id="6VxaLlo_b2UKYAiHiD4Z-36" value="&lt;b&gt;&lt;font style=&quot;font-size: 14px;&quot;&gt;APIG（南北）&lt;/font&gt;&lt;/b&gt;" style="whiteSpace=wrap;html=1;strokeColor=#006EAF;shadow=1;strokeWidth=1;rounded=1;arcSize=2;fillColor=#1ba1e2;fontColor=#ffffff;" vertex="1" parent="1">
          <mxGeometry x="580" y="426" width="140" height="70" as="geometry" />
        </mxCell>
        <mxCell id="6VxaLlo_b2UKYAiHiD4Z-40" value="" style="edgeStyle=orthogonalEdgeStyle;rounded=0;orthogonalLoop=1;jettySize=auto;html=1;" edge="1" parent="1" source="6VxaLlo_b2UKYAiHiD4Z-38" target="6VxaLlo_b2UKYAiHiD4Z-39">
          <mxGeometry relative="1" as="geometry" />
        </mxCell>
        <mxCell id="6VxaLlo_b2UKYAiHiD4Z-38" value="&lt;font size=&quot;1&quot; style=&quot;&quot;&gt;&lt;b style=&quot;font-size: 14px;&quot;&gt;ELB&lt;/b&gt;&lt;/font&gt;" style="whiteSpace=wrap;html=1;strokeColor=#006EAF;shadow=1;strokeWidth=1;rounded=1;arcSize=2;fillColor=#1ba1e2;fontColor=#ffffff;" vertex="1" parent="1">
          <mxGeometry x="154.00000000000003" y="426" width="140" height="70" as="geometry" />
        </mxCell>
        <mxCell id="6VxaLlo_b2UKYAiHiD4Z-42" value="" style="edgeStyle=orthogonalEdgeStyle;rounded=0;orthogonalLoop=1;jettySize=auto;html=1;strokeColor=#B9E0A5;strokeWidth=2;" edge="1" parent="1" source="6VxaLlo_b2UKYAiHiD4Z-39" target="6VxaLlo_b2UKYAiHiD4Z-41">
          <mxGeometry relative="1" as="geometry" />
        </mxCell>
        <mxCell id="6VxaLlo_b2UKYAiHiD4Z-46" style="edgeStyle=orthogonalEdgeStyle;rounded=0;orthogonalLoop=1;jettySize=auto;html=1;strokeColor=#CDA2BE;strokeWidth=2;" edge="1" parent="1" source="6VxaLlo_b2UKYAiHiD4Z-39" target="6VxaLlo_b2UKYAiHiD4Z-43">
          <mxGeometry relative="1" as="geometry" />
        </mxCell>
        <mxCell id="6VxaLlo_b2UKYAiHiD4Z-39" value="&lt;font size=&quot;1&quot; style=&quot;&quot;&gt;&lt;b style=&quot;font-size: 14px;&quot;&gt;Traefik Ingress&lt;/b&gt;&lt;/font&gt;" style="whiteSpace=wrap;html=1;strokeColor=#3700CC;shadow=1;strokeWidth=1;rounded=1;arcSize=2;fillColor=#6a00ff;fontColor=#ffffff;" vertex="1" parent="1">
          <mxGeometry x="154" y="587" width="140" height="53" as="geometry" />
        </mxCell>
        <mxCell id="6VxaLlo_b2UKYAiHiD4Z-41" value="Service_V1" style="whiteSpace=wrap;html=1;strokeColor=#2D7600;shadow=1;strokeWidth=1;rounded=1;arcSize=2;fillColor=#60a917;fontColor=#ffffff;" vertex="1" parent="1">
          <mxGeometry x="34" y="790" width="140" height="70" as="geometry" />
        </mxCell>
        <mxCell id="6VxaLlo_b2UKYAiHiD4Z-43" value="Service_V2" style="whiteSpace=wrap;html=1;strokeColor=#CDA2BE;shadow=1;strokeWidth=1;rounded=1;arcSize=2;fillColor=#CDA2BE;" vertex="1" parent="1">
          <mxGeometry x="284" y="790" width="140" height="70" as="geometry" />
        </mxCell>
        <mxCell id="6VxaLlo_b2UKYAiHiD4Z-53" value="&lt;b&gt;1&lt;/b&gt;" style="ellipse;whiteSpace=wrap;html=1;aspect=fixed;fillColor=#d5e8d4;strokeColor=#82b366;" vertex="1" parent="1">
          <mxGeometry x="130" y="87" width="20" height="20" as="geometry" />
        </mxCell>
        <mxCell id="6VxaLlo_b2UKYAiHiD4Z-54" value="&lt;b&gt;2&lt;/b&gt;" style="ellipse;whiteSpace=wrap;html=1;aspect=fixed;fillColor=#e1d5e7;strokeColor=#9673a6;" vertex="1" parent="1">
          <mxGeometry x="207.1" y="85" width="20" height="20" as="geometry" />
        </mxCell>
        <mxCell id="6VxaLlo_b2UKYAiHiD4Z-60" value="&lt;b&gt;1&lt;/b&gt;" style="ellipse;whiteSpace=wrap;html=1;aspect=fixed;fillColor=#d5e8d4;strokeColor=#82b366;strokeWidth=2;" vertex="1" parent="1">
          <mxGeometry x="272" y="100" width="20" height="20" as="geometry" />
        </mxCell>
        <mxCell id="6VxaLlo_b2UKYAiHiD4Z-63" value="&lt;b&gt;2&lt;/b&gt;" style="ellipse;whiteSpace=wrap;html=1;aspect=fixed;fillColor=#e1d5e7;strokeColor=#9673a6;strokeWidth=2;" vertex="1" parent="1">
          <mxGeometry x="337.1" y="85" width="20" height="20" as="geometry" />
        </mxCell>
        <mxCell id="6VxaLlo_b2UKYAiHiD4Z-69" value="&lt;b&gt;&lt;font color=&quot;#cda2be&quot;&gt;grayId=app-1&lt;/font&gt;&lt;/b&gt;" style="text;html=1;align=center;verticalAlign=middle;whiteSpace=wrap;rounded=0;strokeWidth=2;" vertex="1" parent="1">
          <mxGeometry x="297.1" y="105.00000000000003" width="100" height="30" as="geometry" />
        </mxCell>
        <mxCell id="6VxaLlo_b2UKYAiHiD4Z-70" value="&lt;b&gt;&lt;font color=&quot;#cda2be&quot;&gt;grayId=app-1&lt;/font&gt;&lt;/b&gt;" style="text;html=1;align=center;verticalAlign=middle;whiteSpace=wrap;rounded=0;" vertex="1" parent="1">
          <mxGeometry x="183" y="98.00000000000003" width="100" height="30" as="geometry" />
        </mxCell>
        <mxCell id="6VxaLlo_b2UKYAiHiD4Z-72" value="&lt;b&gt;1&lt;/b&gt;" style="ellipse;whiteSpace=wrap;html=1;aspect=fixed;fillColor=#d5e8d4;strokeColor=#82b366;strokeWidth=2;" vertex="1" parent="1">
          <mxGeometry x="480" y="126" width="20" height="20" as="geometry" />
        </mxCell>
        <mxCell id="6VxaLlo_b2UKYAiHiD4Z-74" value="&lt;b&gt;2&lt;/b&gt;" style="ellipse;whiteSpace=wrap;html=1;aspect=fixed;fillColor=#e1d5e7;strokeColor=#9673a6;strokeWidth=2;" vertex="1" parent="1">
          <mxGeometry x="591" y="125" width="20" height="20" as="geometry" />
        </mxCell>
        <mxCell id="6VxaLlo_b2UKYAiHiD4Z-77" value="&lt;b&gt;&lt;font color=&quot;#cda2be&quot;&gt;grayId=app-1&lt;/font&gt;&lt;/b&gt;" style="text;html=1;align=center;verticalAlign=middle;whiteSpace=wrap;rounded=0;strokeWidth=2;" vertex="1" parent="1">
          <mxGeometry x="557" y="143.00000000000003" width="100" height="30" as="geometry" />
        </mxCell>
        <mxCell id="6VxaLlo_b2UKYAiHiD4Z-78" value="&lt;b&gt;1&lt;/b&gt;" style="ellipse;whiteSpace=wrap;html=1;aspect=fixed;fillColor=#d5e8d4;strokeColor=#82b366;" vertex="1" parent="1">
          <mxGeometry x="137.1" y="725" width="20" height="20" as="geometry" />
        </mxCell>
        <mxCell id="6VxaLlo_b2UKYAiHiD4Z-79" value="&lt;b&gt;2&lt;/b&gt;" style="ellipse;whiteSpace=wrap;html=1;aspect=fixed;fillColor=#e1d5e7;strokeColor=#9673a6;" vertex="1" parent="1">
          <mxGeometry x="286.1" y="725" width="20" height="20" as="geometry" />
        </mxCell>
        <mxCell id="6VxaLlo_b2UKYAiHiD4Z-80" value="&lt;b&gt;&lt;font color=&quot;#cda2be&quot;&gt;grayId=app-1&lt;/font&gt;&lt;/b&gt;" style="text;html=1;align=center;verticalAlign=middle;whiteSpace=wrap;rounded=0;" vertex="1" parent="1">
          <mxGeometry x="246" y="744" width="100" height="30" as="geometry" />
        </mxCell>
        <mxCell id="6VxaLlo_b2UKYAiHiD4Z-81" value="Service_V1" style="whiteSpace=wrap;html=1;strokeColor=#2D7600;shadow=1;strokeWidth=1;rounded=1;arcSize=2;fillColor=#60a917;fontColor=#ffffff;" vertex="1" parent="1">
          <mxGeometry x="470" y="686" width="140" height="70" as="geometry" />
        </mxCell>
        <mxCell id="6VxaLlo_b2UKYAiHiD4Z-84" value="Service_V2" style="whiteSpace=wrap;html=1;strokeColor=#dddddd;shadow=1;strokeWidth=1;rounded=1;arcSize=2;fillColor=#CDA2BE;" vertex="1" parent="1">
          <mxGeometry x="699" y="687" width="140" height="70" as="geometry" />
        </mxCell>
        <mxCell id="6VxaLlo_b2UKYAiHiD4Z-87" value="Service_V1" style="whiteSpace=wrap;html=1;strokeColor=#2D7600;shadow=1;strokeWidth=1;rounded=1;arcSize=2;fillColor=#60a917;fontColor=#ffffff;" vertex="1" parent="1">
          <mxGeometry x="44" y="800" width="140" height="70" as="geometry" />
        </mxCell>
        <mxCell id="6VxaLlo_b2UKYAiHiD4Z-88" value="&lt;font color=&quot;#ffffff&quot;&gt;Service_V1&lt;/font&gt;" style="whiteSpace=wrap;html=1;strokeColor=#2D7600;shadow=1;strokeWidth=1;rounded=1;arcSize=2;fillColor=#60a917;fontColor=#ffffff;" vertex="1" parent="1">
          <mxGeometry x="54" y="810" width="140" height="70" as="geometry" />
        </mxCell>
        <mxCell id="6VxaLlo_b2UKYAiHiD4Z-89" value="Service_V2" style="whiteSpace=wrap;html=1;strokeColor=#dddddd;shadow=1;strokeWidth=1;rounded=1;arcSize=2;fillColor=#CDA2BE;" vertex="1" parent="1">
          <mxGeometry x="294" y="800" width="140" height="70" as="geometry" />
        </mxCell>
        <mxCell id="6VxaLlo_b2UKYAiHiD4Z-90" value="&lt;font color=&quot;#ffffff&quot;&gt;Service_V2&lt;/font&gt;" style="whiteSpace=wrap;html=1;strokeColor=#dddddd;shadow=1;strokeWidth=1;rounded=1;arcSize=2;fillColor=#CDA2BE;" vertex="1" parent="1">
          <mxGeometry x="304" y="810" width="140" height="70" as="geometry" />
        </mxCell>
        <mxCell id="6VxaLlo_b2UKYAiHiD4Z-91" value="&lt;b&gt;Front&amp;nbsp;&lt;/b&gt;&lt;div&gt;&lt;b&gt;CCE&lt;/b&gt;&lt;/div&gt;" style="text;html=1;align=center;verticalAlign=middle;whiteSpace=wrap;rounded=0;" vertex="1" parent="1">
          <mxGeometry x="10.5" y="535" width="80" height="30" as="geometry" />
        </mxCell>
        <mxCell id="6VxaLlo_b2UKYAiHiD4Z-94" value="Service_V1" style="whiteSpace=wrap;html=1;strokeColor=#2D7600;shadow=1;strokeWidth=1;rounded=1;arcSize=2;fillColor=#60a917;fontColor=#ffffff;" vertex="1" parent="1">
          <mxGeometry x="480" y="696" width="140" height="70" as="geometry" />
        </mxCell>
        <mxCell id="6VxaLlo_b2UKYAiHiD4Z-130" style="edgeStyle=orthogonalEdgeStyle;rounded=0;orthogonalLoop=1;jettySize=auto;html=1;strokeColor=#FF3333;endArrow=cross;endFill=0;strokeWidth=2;" edge="1" parent="1" source="6VxaLlo_b2UKYAiHiD4Z-114">
          <mxGeometry relative="1" as="geometry">
            <mxPoint x="1330" y="810" as="targetPoint" />
            <Array as="points">
              <mxPoint x="1330" y="870" />
              <mxPoint x="1330" y="741" />
            </Array>
          </mxGeometry>
        </mxCell>
        <mxCell id="6VxaLlo_b2UKYAiHiD4Z-95" value="&lt;font color=&quot;#ffffff&quot;&gt;ServiceA_V1&lt;/font&gt;" style="whiteSpace=wrap;html=1;strokeColor=#2D7600;shadow=1;strokeWidth=1;rounded=1;arcSize=2;fillColor=#60a917;fontColor=#ffffff;" vertex="1" parent="1">
          <mxGeometry x="490" y="706" width="140" height="70" as="geometry" />
        </mxCell>
        <mxCell id="6VxaLlo_b2UKYAiHiD4Z-96" value="Service_V2" style="whiteSpace=wrap;html=1;strokeColor=#dddddd;shadow=1;strokeWidth=1;rounded=1;arcSize=2;fillColor=#CDA2BE;" vertex="1" parent="1">
          <mxGeometry x="709" y="697" width="140" height="70" as="geometry" />
        </mxCell>
        <mxCell id="6VxaLlo_b2UKYAiHiD4Z-107" style="rounded=0;orthogonalLoop=1;jettySize=auto;html=1;strokeColor=#CDA2BE;strokeWidth=2;" edge="1" parent="1" source="6VxaLlo_b2UKYAiHiD4Z-97" target="6VxaLlo_b2UKYAiHiD4Z-106">
          <mxGeometry relative="1" as="geometry" />
        </mxCell>
        <mxCell id="6VxaLlo_b2UKYAiHiD4Z-97" value="&lt;font color=&quot;#ffffff&quot;&gt;ServiceA_V2&lt;/font&gt;" style="whiteSpace=wrap;html=1;strokeColor=#dddddd;shadow=1;strokeWidth=1;rounded=1;arcSize=2;fillColor=#CDA2BE;" vertex="1" parent="1">
          <mxGeometry x="719" y="707" width="140" height="70" as="geometry" />
        </mxCell>
        <mxCell id="6VxaLlo_b2UKYAiHiD4Z-98" value="&lt;b&gt;Backend CCE&lt;/b&gt;" style="text;html=1;align=center;verticalAlign=middle;whiteSpace=wrap;rounded=0;" vertex="1" parent="1">
          <mxGeometry x="461" y="531" width="80" height="30" as="geometry" />
        </mxCell>
        <mxCell id="6VxaLlo_b2UKYAiHiD4Z-101" value="&lt;b&gt;1&lt;/b&gt;" style="ellipse;whiteSpace=wrap;html=1;aspect=fixed;fillColor=#d5e8d4;strokeColor=#82b366;" vertex="1" parent="1">
          <mxGeometry x="576" y="578" width="20" height="20" as="geometry" />
        </mxCell>
        <mxCell id="6VxaLlo_b2UKYAiHiD4Z-104" value="&lt;b&gt;2&lt;/b&gt;" style="ellipse;whiteSpace=wrap;html=1;aspect=fixed;fillColor=#e1d5e7;strokeColor=#9673a6;" vertex="1" parent="1">
          <mxGeometry x="710" y="574" width="20" height="20" as="geometry" />
        </mxCell>
        <mxCell id="6VxaLlo_b2UKYAiHiD4Z-105" value="&lt;b&gt;&lt;font color=&quot;#cda2be&quot;&gt;grayId=app-1&lt;/font&gt;&lt;/b&gt;" style="text;html=1;align=center;verticalAlign=middle;whiteSpace=wrap;rounded=0;" vertex="1" parent="1">
          <mxGeometry x="670" y="594" width="100" height="30" as="geometry" />
        </mxCell>
        <mxCell id="6VxaLlo_b2UKYAiHiD4Z-106" value="ServiceB_V2" style="whiteSpace=wrap;html=1;strokeColor=#dddddd;shadow=1;strokeWidth=1;rounded=1;arcSize=2;fillColor=#CDA2BE;" vertex="1" parent="1">
          <mxGeometry x="1020" y="707" width="140" height="70" as="geometry" />
        </mxCell>
        <mxCell id="6VxaLlo_b2UKYAiHiD4Z-108" value="&lt;b&gt;&lt;font color=&quot;#cda2be&quot;&gt;grayId=app-1&lt;/font&gt;&lt;/b&gt;" style="text;html=1;align=center;verticalAlign=middle;whiteSpace=wrap;rounded=0;" vertex="1" parent="1">
          <mxGeometry x="892" y="718" width="100" height="30" as="geometry" />
        </mxCell>
        <mxCell id="6VxaLlo_b2UKYAiHiD4Z-111" style="rounded=0;orthogonalLoop=1;jettySize=auto;html=1;entryX=0.75;entryY=0;entryDx=0;entryDy=0;exitX=0.45;exitY=1.036;exitDx=0;exitDy=0;exitPerimeter=0;endArrow=none;endFill=0;dashed=1;" edge="1" parent="1" source="6VxaLlo_b2UKYAiHiD4Z-110" target="6VxaLlo_b2UKYAiHiD4Z-81">
          <mxGeometry relative="1" as="geometry" />
        </mxCell>
        <mxCell id="6VxaLlo_b2UKYAiHiD4Z-112" style="rounded=0;orthogonalLoop=1;jettySize=auto;html=1;entryX=0.5;entryY=0;entryDx=0;entryDy=0;exitX=0.5;exitY=1;exitDx=0;exitDy=0;endArrow=none;endFill=0;dashed=1;" edge="1" parent="1" source="6VxaLlo_b2UKYAiHiD4Z-110" target="6VxaLlo_b2UKYAiHiD4Z-84">
          <mxGeometry relative="1" as="geometry" />
        </mxCell>
        <mxCell id="6VxaLlo_b2UKYAiHiD4Z-113" style="rounded=0;orthogonalLoop=1;jettySize=auto;html=1;endArrow=none;endFill=0;exitX=0.5;exitY=1;exitDx=0;exitDy=0;dashed=1;" edge="1" parent="1" source="6VxaLlo_b2UKYAiHiD4Z-110" target="6VxaLlo_b2UKYAiHiD4Z-106">
          <mxGeometry relative="1" as="geometry" />
        </mxCell>
        <mxCell id="6VxaLlo_b2UKYAiHiD4Z-147" style="rounded=0;orthogonalLoop=1;jettySize=auto;html=1;entryX=0.5;entryY=0;entryDx=0;entryDy=0;exitX=0.5;exitY=1;exitDx=0;exitDy=0;dashed=1;" edge="1" parent="1" source="6VxaLlo_b2UKYAiHiD4Z-110" target="6VxaLlo_b2UKYAiHiD4Z-142">
          <mxGeometry relative="1" as="geometry" />
        </mxCell>
        <mxCell id="6VxaLlo_b2UKYAiHiD4Z-110" value="&lt;font size=&quot;1&quot; color=&quot;#ffffff&quot; style=&quot;&quot;&gt;&lt;b style=&quot;font-size: 14px;&quot;&gt;Sermant 标签路由&lt;/b&gt;&lt;/font&gt;" style="whiteSpace=wrap;html=1;strokeColor=#C73500;shadow=1;strokeWidth=1;rounded=1;arcSize=2;fillColor=#fa6800;fontColor=#000000;" vertex="1" parent="1">
          <mxGeometry x="859" y="590" width="140" height="60" as="geometry" />
        </mxCell>
        <mxCell id="6VxaLlo_b2UKYAiHiD4Z-126" style="edgeStyle=orthogonalEdgeStyle;rounded=0;orthogonalLoop=1;jettySize=auto;html=1;entryX=0.5;entryY=1;entryDx=0;entryDy=0;strokeColor=#CDA2BE;strokeWidth=2;" edge="1" parent="1" source="6VxaLlo_b2UKYAiHiD4Z-114" target="6VxaLlo_b2UKYAiHiD4Z-106">
          <mxGeometry relative="1" as="geometry" />
        </mxCell>
        <mxCell id="6VxaLlo_b2UKYAiHiD4Z-114" value="RocketMQ" style="strokeWidth=2;html=1;shape=mxgraph.flowchart.direct_data;whiteSpace=wrap;fillColor=#fff2cc;strokeColor=#d6b656;" vertex="1" parent="1">
          <mxGeometry x="880" y="820" width="100" height="60" as="geometry" />
        </mxCell>
        <mxCell id="6VxaLlo_b2UKYAiHiD4Z-116" value="&lt;b&gt;&lt;font color=&quot;#cda2be&quot;&gt;msg（drop）&lt;/font&gt;&lt;/b&gt;&lt;div&gt;&lt;b&gt;&lt;font color=&quot;#cda2be&quot;&gt;grayId=app-1&lt;/font&gt;&lt;/b&gt;&lt;/div&gt;" style="text;html=1;align=center;verticalAlign=middle;whiteSpace=wrap;rounded=0;" vertex="1" parent="1">
          <mxGeometry x="1236" y="835" width="100" height="30" as="geometry" />
        </mxCell>
        <mxCell id="6VxaLlo_b2UKYAiHiD4Z-122" value="&lt;b&gt;&lt;font color=&quot;#cda2be&quot;&gt;msg&lt;/font&gt;&lt;/b&gt;&lt;div&gt;&lt;b&gt;&lt;font color=&quot;#cda2be&quot;&gt;grayId=app-1&lt;/font&gt;&lt;/b&gt;&lt;/div&gt;" style="text;html=1;align=center;verticalAlign=middle;whiteSpace=wrap;rounded=0;" vertex="1" parent="1">
          <mxGeometry x="770" y="810" width="100" height="30" as="geometry" />
        </mxCell>
        <mxCell id="6VxaLlo_b2UKYAiHiD4Z-125" style="edgeStyle=orthogonalEdgeStyle;rounded=0;orthogonalLoop=1;jettySize=auto;html=1;entryX=0;entryY=0.5;entryDx=0;entryDy=0;entryPerimeter=0;strokeColor=#CDA2BE;strokeWidth=2;" edge="1" parent="1" source="6VxaLlo_b2UKYAiHiD4Z-97" target="6VxaLlo_b2UKYAiHiD4Z-114">
          <mxGeometry relative="1" as="geometry">
            <Array as="points">
              <mxPoint x="780" y="850" />
            </Array>
          </mxGeometry>
        </mxCell>
        <mxCell id="6VxaLlo_b2UKYAiHiD4Z-127" value="&lt;b&gt;2&lt;/b&gt;" style="ellipse;whiteSpace=wrap;html=1;aspect=fixed;fillColor=#e1d5e7;strokeColor=#9673a6;" vertex="1" parent="1">
          <mxGeometry x="930" y="702" width="20" height="20" as="geometry" />
        </mxCell>
        <mxCell id="6VxaLlo_b2UKYAiHiD4Z-129" value="&lt;b&gt;&lt;font color=&quot;#cda2be&quot;&gt;msg&lt;/font&gt;&lt;/b&gt;&lt;div&gt;&lt;b&gt;&lt;font color=&quot;#cda2be&quot;&gt;grayId=app-1&lt;/font&gt;&lt;/b&gt;&lt;/div&gt;" style="text;html=1;align=center;verticalAlign=middle;whiteSpace=wrap;rounded=0;" vertex="1" parent="1">
          <mxGeometry x="1090" y="805" width="100" height="30" as="geometry" />
        </mxCell>
        <mxCell id="6VxaLlo_b2UKYAiHiD4Z-134" style="rounded=1;orthogonalLoop=1;jettySize=auto;html=1;strokeColor=#CDA2BE;curved=0;strokeWidth=2;" edge="1" parent="1" source="6VxaLlo_b2UKYAiHiD4Z-131" target="6VxaLlo_b2UKYAiHiD4Z-106">
          <mxGeometry relative="1" as="geometry" />
        </mxCell>
        <mxCell id="6VxaLlo_b2UKYAiHiD4Z-139" style="rounded=0;orthogonalLoop=1;jettySize=auto;html=1;entryX=0.5;entryY=0;entryDx=0;entryDy=0;strokeColor=#B9E0A5;strokeWidth=2;" edge="1" parent="1" target="6VxaLlo_b2UKYAiHiD4Z-142">
          <mxGeometry relative="1" as="geometry">
            <mxPoint x="1129" y="656" as="sourcePoint" />
            <mxPoint x="559" y="702" as="targetPoint" />
          </mxGeometry>
        </mxCell>
        <mxCell id="6VxaLlo_b2UKYAiHiD4Z-137" value="" style="shape=image;html=1;verticalAlign=top;verticalLabelPosition=bottom;labelBackgroundColor=#ffffff;imageAspect=0;aspect=fixed;image=https://cdn3.iconfinder.com/data/icons/flat-actions-icons-9/512/Tick_Mark-128.png" vertex="1" parent="1">
          <mxGeometry x="1095" y="796" width="24" height="24" as="geometry" />
        </mxCell>
        <mxCell id="6VxaLlo_b2UKYAiHiD4Z-138" value="" style="verticalLabelPosition=bottom;verticalAlign=top;html=1;shape=mxgraph.basic.x;fillColor=#e51400;fontColor=#ffffff;strokeColor=#B20000;" vertex="1" parent="1">
          <mxGeometry x="1221" y="840" width="21" height="15" as="geometry" />
        </mxCell>
        <mxCell id="6VxaLlo_b2UKYAiHiD4Z-140" value="&lt;b&gt;1&lt;/b&gt;" style="ellipse;whiteSpace=wrap;html=1;aspect=fixed;fillColor=#d5e8d4;strokeColor=#82b366;" vertex="1" parent="1">
          <mxGeometry x="1205" y="664" width="20" height="20" as="geometry" />
        </mxCell>
        <mxCell id="6VxaLlo_b2UKYAiHiD4Z-141" value="&lt;b&gt;2&lt;/b&gt;" style="ellipse;whiteSpace=wrap;html=1;aspect=fixed;fillColor=#e1d5e7;strokeColor=#9673a6;" vertex="1" parent="1">
          <mxGeometry x="1110" y="672" width="20" height="20" as="geometry" />
        </mxCell>
        <mxCell id="6VxaLlo_b2UKYAiHiD4Z-142" value="ServiceB_V1" style="whiteSpace=wrap;html=1;strokeColor=#2D7600;shadow=1;strokeWidth=1;rounded=1;arcSize=2;fillColor=#60a917;fontColor=#ffffff;" vertex="1" parent="1">
          <mxGeometry x="1230" y="706" width="140" height="70" as="geometry" />
        </mxCell>
        <mxCell id="6VxaLlo_b2UKYAiHiD4Z-143" value="ServiceB_V2" style="whiteSpace=wrap;html=1;strokeColor=#dddddd;shadow=1;strokeWidth=1;rounded=1;arcSize=2;fillColor=#CDA2BE;" vertex="1" parent="1">
          <mxGeometry x="1030" y="717" width="140" height="70" as="geometry" />
        </mxCell>
        <mxCell id="6VxaLlo_b2UKYAiHiD4Z-169" style="rounded=0;orthogonalLoop=1;jettySize=auto;html=1;entryX=0;entryY=0.5;entryDx=0;entryDy=0;strokeColor=#CDA2BE;strokeWidth=2;edgeStyle=orthogonalEdgeStyle;" edge="1" parent="1" source="6VxaLlo_b2UKYAiHiD4Z-144" target="6VxaLlo_b2UKYAiHiD4Z-168">
          <mxGeometry relative="1" as="geometry">
            <Array as="points">
              <mxPoint x="1100" y="580" />
            </Array>
          </mxGeometry>
        </mxCell>
        <mxCell id="6VxaLlo_b2UKYAiHiD4Z-144" value="&lt;font color=&quot;#ffffff&quot;&gt;ServiceB_V2&lt;/font&gt;" style="whiteSpace=wrap;html=1;strokeColor=#dddddd;shadow=1;strokeWidth=1;rounded=1;arcSize=2;fillColor=#CDA2BE;" vertex="1" parent="1">
          <mxGeometry x="1040" y="727" width="140" height="70" as="geometry" />
        </mxCell>
        <mxCell id="6VxaLlo_b2UKYAiHiD4Z-145" value="ServiceB_V1" style="whiteSpace=wrap;html=1;strokeColor=#2D7600;shadow=1;strokeWidth=1;rounded=1;arcSize=2;fillColor=#60a917;fontColor=#ffffff;" vertex="1" parent="1">
          <mxGeometry x="1240" y="716" width="140" height="70" as="geometry" />
        </mxCell>
        <mxCell id="6VxaLlo_b2UKYAiHiD4Z-179" style="edgeStyle=orthogonalEdgeStyle;rounded=0;orthogonalLoop=1;jettySize=auto;html=1;entryX=0.5;entryY=1;entryDx=0;entryDy=0;strokeColor=#97D077;strokeWidth=2;" edge="1" parent="1" source="6VxaLlo_b2UKYAiHiD4Z-146" target="6VxaLlo_b2UKYAiHiD4Z-168">
          <mxGeometry relative="1" as="geometry" />
        </mxCell>
        <mxCell id="6VxaLlo_b2UKYAiHiD4Z-146" value="&lt;font color=&quot;#ffffff&quot;&gt;ServiceB_V1&lt;/font&gt;" style="whiteSpace=wrap;html=1;strokeColor=#2D7600;shadow=1;strokeWidth=1;rounded=1;arcSize=2;fillColor=#60a917;fontColor=#ffffff;" vertex="1" parent="1">
          <mxGeometry x="1250" y="726" width="140" height="70" as="geometry" />
        </mxCell>
        <mxCell id="6VxaLlo_b2UKYAiHiD4Z-149" style="rounded=0;orthogonalLoop=1;jettySize=auto;html=1;entryX=0.5;entryY=0;entryDx=0;entryDy=0;exitX=0.5;exitY=1;exitDx=0;exitDy=0;dashed=1;strokeColor=#97D077;" edge="1" parent="1" source="6VxaLlo_b2UKYAiHiD4Z-148" target="6VxaLlo_b2UKYAiHiD4Z-145">
          <mxGeometry relative="1" as="geometry" />
        </mxCell>
        <mxCell id="6VxaLlo_b2UKYAiHiD4Z-151" style="rounded=0;orthogonalLoop=1;jettySize=auto;html=1;exitX=0.5;exitY=1;exitDx=0;exitDy=0;dashed=1;strokeColor=#B5739D;" edge="1" parent="1" source="6VxaLlo_b2UKYAiHiD4Z-148" target="6VxaLlo_b2UKYAiHiD4Z-84">
          <mxGeometry relative="1" as="geometry" />
        </mxCell>
        <mxCell id="6VxaLlo_b2UKYAiHiD4Z-148" value="&lt;b&gt;&lt;font style=&quot;font-size: 14px;&quot;&gt;CSE 配置下发&lt;/font&gt;&lt;/b&gt;" style="whiteSpace=wrap;html=1;strokeColor=#006EAF;shadow=1;strokeWidth=1;rounded=1;arcSize=2;fillColor=#1ba1e2;fontColor=#ffffff;" vertex="1" parent="1">
          <mxGeometry x="1090" y="426" width="140" height="70" as="geometry" />
        </mxCell>
        <mxCell id="6VxaLlo_b2UKYAiHiD4Z-150" style="rounded=0;orthogonalLoop=1;jettySize=auto;html=1;entryX=0.603;entryY=-0.017;entryDx=0;entryDy=0;exitX=0.5;exitY=1;exitDx=0;exitDy=0;entryPerimeter=0;dashed=1;strokeColor=#B5739D;" edge="1" parent="1" source="6VxaLlo_b2UKYAiHiD4Z-148" target="6VxaLlo_b2UKYAiHiD4Z-106">
          <mxGeometry relative="1" as="geometry" />
        </mxCell>
        <mxCell id="6VxaLlo_b2UKYAiHiD4Z-152" style="rounded=0;orthogonalLoop=1;jettySize=auto;html=1;entryX=0.5;entryY=0;entryDx=0;entryDy=0;exitX=0.5;exitY=1;exitDx=0;exitDy=0;dashed=1;strokeColor=#97D077;" edge="1" parent="1" source="6VxaLlo_b2UKYAiHiD4Z-148" target="6VxaLlo_b2UKYAiHiD4Z-81">
          <mxGeometry relative="1" as="geometry" />
        </mxCell>
        <mxCell id="6VxaLlo_b2UKYAiHiD4Z-153" value="&lt;b&gt;1&lt;/b&gt;" style="ellipse;whiteSpace=wrap;html=1;aspect=fixed;fillColor=#d5e8d4;strokeColor=#82b366;" vertex="1" parent="1">
          <mxGeometry x="950" y="536" width="20" height="20" as="geometry" />
        </mxCell>
        <mxCell id="6VxaLlo_b2UKYAiHiD4Z-154" value="&lt;b&gt;2&lt;/b&gt;" style="ellipse;whiteSpace=wrap;html=1;aspect=fixed;fillColor=#e1d5e7;strokeColor=#9673a6;" vertex="1" parent="1">
          <mxGeometry x="1040" y="545" width="20" height="20" as="geometry" />
        </mxCell>
        <mxCell id="6VxaLlo_b2UKYAiHiD4Z-163" style="rounded=0;orthogonalLoop=1;jettySize=auto;html=1;strokeColor=#CDA2BE;dashed=1;strokeWidth=2;edgeStyle=orthogonalEdgeStyle;" edge="1" parent="1">
          <mxGeometry relative="1" as="geometry">
            <mxPoint x="740" y="50" as="targetPoint" />
            <mxPoint x="901.22" y="426" as="sourcePoint" />
            <Array as="points">
              <mxPoint x="901.22" y="105" />
              <mxPoint x="902.22" y="50" />
            </Array>
          </mxGeometry>
        </mxCell>
        <mxCell id="6VxaLlo_b2UKYAiHiD4Z-166" value="&lt;b&gt;&lt;font color=&quot;#cda2be&quot; style=&quot;font-size: 14px;&quot;&gt;泳道下发&lt;/font&gt;&lt;/b&gt;" style="edgeLabel;html=1;align=center;verticalAlign=middle;resizable=0;points=[];" vertex="1" connectable="0" parent="6VxaLlo_b2UKYAiHiD4Z-163">
          <mxGeometry x="-0.3392" y="2" relative="1" as="geometry">
            <mxPoint as="offset" />
          </mxGeometry>
        </mxCell>
        <mxCell id="6VxaLlo_b2UKYAiHiD4Z-156" value="&lt;b style=&quot;&quot;&gt;&lt;font style=&quot;font-size: 14px;&quot;&gt;FunctionGroup&lt;/font&gt;&lt;/b&gt;" style="whiteSpace=wrap;html=1;strokeColor=#006EAF;shadow=1;strokeWidth=1;rounded=1;arcSize=2;fillColor=#1ba1e2;fontColor=#ffffff;" vertex="1" parent="1">
          <mxGeometry x="822" y="426" width="170" height="70" as="geometry" />
        </mxCell>
        <mxCell id="6VxaLlo_b2UKYAiHiD4Z-180" style="edgeStyle=orthogonalEdgeStyle;rounded=0;orthogonalLoop=1;jettySize=auto;html=1;strokeWidth=2;strokeColor=#CDA2BE;" edge="1" parent="1" source="6VxaLlo_b2UKYAiHiD4Z-168" target="6VxaLlo_b2UKYAiHiD4Z-174">
          <mxGeometry relative="1" as="geometry" />
        </mxCell>
        <mxCell id="6VxaLlo_b2UKYAiHiD4Z-186" style="edgeStyle=orthogonalEdgeStyle;rounded=0;orthogonalLoop=1;jettySize=auto;html=1;entryX=0;entryY=0.5;entryDx=0;entryDy=0;strokeColor=#97D077;strokeWidth=2;" edge="1" parent="1">
          <mxGeometry relative="1" as="geometry">
            <mxPoint x="1540" y="620" as="sourcePoint" />
            <mxPoint x="1620" y="778.5" as="targetPoint" />
            <Array as="points">
              <mxPoint x="1540" y="779" />
            </Array>
          </mxGeometry>
        </mxCell>
        <mxCell id="6VxaLlo_b2UKYAiHiD4Z-168" value="&lt;b&gt;&lt;font style=&quot;font-size: 14px;&quot;&gt;APIG（东西）&lt;/font&gt;&lt;/b&gt;" style="whiteSpace=wrap;html=1;strokeColor=#006EAF;shadow=1;strokeWidth=1;rounded=1;arcSize=2;fillColor=#1ba1e2;fontColor=#ffffff;" vertex="1" parent="1">
          <mxGeometry x="1450" y="545" width="140" height="70" as="geometry" />
        </mxCell>
        <mxCell id="6VxaLlo_b2UKYAiHiD4Z-171" value="&lt;font color=&quot;#ffffff&quot;&gt;ServiceB_V1&lt;/font&gt;" style="whiteSpace=wrap;html=1;strokeColor=#2D7600;shadow=1;strokeWidth=1;rounded=1;arcSize=2;fillColor=#60a917;fontColor=#ffffff;" vertex="1" parent="1">
          <mxGeometry x="1620" y="735.5" width="140" height="70" as="geometry" />
        </mxCell>
        <mxCell id="6VxaLlo_b2UKYAiHiD4Z-172" value="&lt;font color=&quot;#ffffff&quot;&gt;ServiceB_V1&lt;/font&gt;" style="whiteSpace=wrap;html=1;strokeColor=#2D7600;shadow=1;strokeWidth=1;rounded=1;arcSize=2;fillColor=#60a917;fontColor=#ffffff;" vertex="1" parent="1">
          <mxGeometry x="1630" y="745.5" width="140" height="70" as="geometry" />
        </mxCell>
        <mxCell id="6VxaLlo_b2UKYAiHiD4Z-173" value="&lt;font color=&quot;#ffffff&quot;&gt;ServiceC_V1&lt;/font&gt;" style="whiteSpace=wrap;html=1;strokeColor=#2D7600;shadow=1;strokeWidth=1;rounded=1;arcSize=2;fillColor=#60a917;fontColor=#ffffff;" vertex="1" parent="1">
          <mxGeometry x="1640" y="755.5" width="140" height="70" as="geometry" />
        </mxCell>
        <mxCell id="6VxaLlo_b2UKYAiHiD4Z-174" value="&lt;font color=&quot;#ffffff&quot;&gt;ServiceB_V2&lt;/font&gt;" style="whiteSpace=wrap;html=1;strokeColor=#dddddd;shadow=1;strokeWidth=1;rounded=1;arcSize=2;fillColor=#CDA2BE;" vertex="1" parent="1">
          <mxGeometry x="1620" y="618.5" width="140" height="70" as="geometry" />
        </mxCell>
        <mxCell id="6VxaLlo_b2UKYAiHiD4Z-175" value="&lt;font color=&quot;#ffffff&quot;&gt;ServiceB_V2&lt;/font&gt;" style="whiteSpace=wrap;html=1;strokeColor=#dddddd;shadow=1;strokeWidth=1;rounded=1;arcSize=2;fillColor=#CDA2BE;" vertex="1" parent="1">
          <mxGeometry x="1630" y="628.5" width="140" height="70" as="geometry" />
        </mxCell>
        <mxCell id="6VxaLlo_b2UKYAiHiD4Z-176" value="&lt;font color=&quot;#ffffff&quot;&gt;ServiceC_V2&lt;/font&gt;" style="whiteSpace=wrap;html=1;strokeColor=#dddddd;shadow=1;strokeWidth=1;rounded=1;arcSize=2;fillColor=#CDA2BE;" vertex="1" parent="1">
          <mxGeometry x="1640" y="638.5" width="140" height="70" as="geometry" />
        </mxCell>
        <mxCell id="6VxaLlo_b2UKYAiHiD4Z-177" value="&lt;b&gt;2&lt;/b&gt;" style="ellipse;whiteSpace=wrap;html=1;aspect=fixed;fillColor=#e1d5e7;strokeColor=#9673a6;" vertex="1" parent="1">
          <mxGeometry x="1320" y="556" width="20" height="20" as="geometry" />
        </mxCell>
        <mxCell id="6VxaLlo_b2UKYAiHiD4Z-178" value="&lt;b&gt;&lt;font color=&quot;#cda2be&quot;&gt;grayId=app-1&lt;/font&gt;&lt;/b&gt;" style="text;html=1;align=center;verticalAlign=middle;whiteSpace=wrap;rounded=0;" vertex="1" parent="1">
          <mxGeometry x="1290" y="580" width="100" height="30" as="geometry" />
        </mxCell>
        <mxCell id="6VxaLlo_b2UKYAiHiD4Z-184" value="&lt;b&gt;2&lt;/b&gt;" style="ellipse;whiteSpace=wrap;html=1;aspect=fixed;fillColor=#e1d5e7;strokeColor=#9673a6;" vertex="1" parent="1">
          <mxGeometry x="1640" y="558" width="20" height="20" as="geometry" />
        </mxCell>
        <mxCell id="6VxaLlo_b2UKYAiHiD4Z-185" value="&lt;b&gt;&lt;font color=&quot;#cda2be&quot;&gt;grayId=app-1&lt;/font&gt;&lt;/b&gt;" style="text;html=1;align=center;verticalAlign=middle;whiteSpace=wrap;rounded=0;" vertex="1" parent="1">
          <mxGeometry x="1590" y="578" width="100" height="30" as="geometry" />
        </mxCell>
        <mxCell id="6VxaLlo_b2UKYAiHiD4Z-189" value="&lt;b&gt;1&lt;/b&gt;" style="ellipse;whiteSpace=wrap;html=1;aspect=fixed;fillColor=#d5e8d4;strokeColor=#82b366;" vertex="1" parent="1">
          <mxGeometry x="1440" y="741" width="20" height="20" as="geometry" />
        </mxCell>
        <mxCell id="6VxaLlo_b2UKYAiHiD4Z-190" value="&lt;b&gt;1&lt;/b&gt;" style="ellipse;whiteSpace=wrap;html=1;aspect=fixed;fillColor=#d5e8d4;strokeColor=#82b366;" vertex="1" parent="1">
          <mxGeometry x="1540" y="692" width="20" height="20" as="geometry" />
        </mxCell>
      </root>
    </mxGraphModel>
  </diagram>
</mxfile>
